<?xml version="1.0" encoding="utf-8"?>
<!-- Generator: Adobe Illustrator 15.1.0, SVG Export Plug-In  -->
<!DOCTYPE svg PUBLIC "-//W3C//DTD SVG 1.1//EN" "http://www.w3.org/Graphics/SVG/1.1/DTD/svg11.dtd" [
	<!ENTITY ns_flows "http://ns.adobe.com/Flows/1.0/">
]>
<svg version="1.1"
	 xmlns="http://www.w3.org/2000/svg" xmlns:xlink="http://www.w3.org/1999/xlink" xmlns:a="http://ns.adobe.com/AdobeSVGViewerExtensions/3.0/"
	 x="0px" y="0px" width="16px" height="16px" viewBox="-2 -2.819 16 16"
	 overflow="visible" enable-background="new -2 -2.819 16 16" xml:space="preserve">
<defs>
</defs>
<polygon display="none" fill="#FFFFFF" points="2.5,6.181 7.5,6.181 7.5,1.181 "/>
<polygon display="none" fill="#FFFFFF" points="4,8.483 7.535,4.949 4,1.413 "/>
<path display="none" fill="#FFB440" d="M1.107,4.741c0.276-0.007,0.5-0.081,0.674-0.223C1.955,4.375,2.07,4.182,2.127,3.935
	s0.088-0.669,0.091-1.268C2.221,2.069,2.232,1.676,2.25,1.485C2.282,1.184,2.342,0.943,2.43,0.76
	c0.088-0.183,0.196-0.329,0.325-0.438C2.885,0.214,3.049,0.13,3.25,0.074C3.386,0.038,3.608,0.02,3.916,0.02h0.301v0.843H4.05
	c-0.373,0-0.62,0.067-0.741,0.201c-0.122,0.135-0.183,0.435-0.183,0.9c0,0.938-0.02,1.53-0.059,1.777
	C3.003,4.125,2.892,4.42,2.737,4.627c-0.156,0.207-0.4,0.392-0.733,0.553c0.394,0.165,0.68,0.416,0.856,0.755
	c0.178,0.338,0.266,0.894,0.266,1.662c0,0.698,0.007,1.114,0.021,1.246c0.029,0.244,0.101,0.414,0.217,0.511
	c0.117,0.098,0.345,0.145,0.685,0.145h0.167v0.844h-0.3c-0.351,0-0.605-0.028-0.763-0.086c-0.229-0.082-0.419-0.215-0.569-0.399
	c-0.15-0.184-0.248-0.418-0.293-0.7C2.247,8.874,2.222,8.411,2.219,7.766C2.216,7.12,2.185,6.674,2.127,6.427
	S1.955,5.985,1.781,5.842C1.607,5.698,1.383,5.623,1.107,5.617V4.741z"/>
<path display="none" fill="#FFB440" d="M10.893,4.741v0.876c-0.274,0.007-0.5,0.082-0.674,0.226C10.045,5.985,9.93,6.18,9.873,6.425
	C9.814,6.671,9.785,7.092,9.781,7.69C9.777,8.288,9.768,8.682,9.749,8.872C9.717,9.177,9.656,9.42,9.568,9.601
	C9.48,9.782,9.373,9.927,9.244,10.036c-0.129,0.108-0.293,0.191-0.494,0.25c-0.137,0.039-0.357,0.059-0.666,0.059H7.783V9.501h0.166
	c0.373,0,0.619-0.066,0.742-0.2c0.121-0.136,0.182-0.437,0.182-0.905c0-0.895,0.018-1.463,0.049-1.701
	c0.057-0.397,0.172-0.717,0.344-0.955c0.172-0.237,0.416-0.423,0.73-0.556c-0.412-0.196-0.701-0.457-0.87-0.781
	C8.957,4.079,8.873,3.532,8.873,2.762c0-0.698-0.008-1.115-0.025-1.252C8.823,1.271,8.751,1.103,8.635,1.008
	C8.518,0.913,8.29,0.865,7.949,0.865H7.783V0.02h0.301c0.352,0,0.605,0.028,0.764,0.086c0.229,0.078,0.418,0.211,0.568,0.397
	s0.248,0.421,0.293,0.703c0.045,0.283,0.068,0.747,0.072,1.392s0.033,1.089,0.092,1.334c0.057,0.246,0.172,0.44,0.346,0.583
	C10.393,4.659,10.617,4.734,10.893,4.741z"/>
<path display="none" fill="#FFB440" d="M0.028,6.884l0.94-0.129c0.025,0.602,0.138,1.013,0.338,1.234
	c0.201,0.223,0.478,0.334,0.833,0.334c0.261,0,0.487-0.062,0.677-0.181c0.19-0.121,0.32-0.282,0.392-0.489
	C3.28,7.448,3.315,7.12,3.315,6.669V1.244h1.042V6.61c0,0.658-0.08,1.168-0.239,1.529C3.958,8.501,3.706,8.778,3.36,8.968
	C3.015,9.157,2.609,9.251,2.144,9.251c-0.691,0-1.22-0.197-1.587-0.596C0.19,8.259,0.014,7.667,0.028,6.884z"/>
<path display="none" fill="#FFB440" d="M5.705,6.588l0.982-0.087C6.734,6.896,6.842,7.22,7.012,7.472s0.436,0.457,0.793,0.611
	c0.357,0.156,0.76,0.233,1.209,0.233c0.396,0,0.747-0.059,1.053-0.178c0.304-0.117,0.529-0.278,0.68-0.485
	c0.148-0.205,0.223-0.431,0.223-0.675c0-0.246-0.072-0.463-0.215-0.646c-0.145-0.186-0.38-0.34-0.709-0.465
	c-0.212-0.082-0.679-0.21-1.402-0.384C7.92,5.311,7.413,5.146,7.123,4.993C6.747,4.796,6.467,4.552,6.282,4.26
	C6.098,3.968,6.006,3.641,6.006,3.28c0-0.397,0.113-0.769,0.338-1.115C6.568,1.82,6.898,1.558,7.332,1.377
	c0.434-0.179,0.915-0.269,1.445-0.269c0.582,0,1.099,0.094,1.543,0.282c0.447,0.188,0.789,0.465,1.029,0.83
	C11.589,2.585,11.718,3,11.736,3.462l-1,0.075c-0.053-0.498-0.234-0.874-0.545-1.128C9.882,2.155,9.424,2.028,8.82,2.028
	c-0.631,0-1.09,0.115-1.379,0.347C7.154,2.604,7.01,2.884,7.01,3.209c0,0.283,0.104,0.516,0.307,0.698
	c0.201,0.183,0.725,0.37,1.572,0.562c0.846,0.191,1.428,0.359,1.741,0.502c0.459,0.211,0.797,0.479,1.017,0.803
	c0.218,0.324,0.326,0.697,0.326,1.119c0,0.42-0.119,0.814-0.358,1.186c-0.24,0.369-0.585,0.658-1.034,0.863
	c-0.449,0.207-0.955,0.311-1.518,0.311c-0.713,0-1.311-0.104-1.791-0.312C6.79,8.732,6.412,8.421,6.138,8.003
	C5.863,7.585,5.719,7.114,5.705,6.588z"/>
<path display="none" fill="#FFB440" d="M0.181,5.619V4.716l5.215-2.202v0.962L1.26,5.173l4.136,1.713v0.962L0.181,5.619z"/>
<path display="none" fill="#FFB440" d="M11.818,5.619L6.604,7.848V6.886l4.131-1.713L6.604,3.476V2.514l5.215,2.202V5.619z"/>
<path fill="#60B8D2" d="M5,2c0,0.553-0.448,1-1,1H1C0.448,3,0,2.553,0,2V1c0-0.552,0.448-1,1-1h3c0.552,0,1,0.448,1,1V2z"/>
<path fill="#9AE5FF" d="M12,8.361c0,0.552-0.447,1-1,1H1c-0.552,0-1-0.448-1-1V2.36c0-0.552,0.448-1,1-1h10c0.553,0,1,0.448,1,1
	V8.361z"/>
</svg>
