<?xml version="1.0" encoding="utf-8"?>
<!-- Generator: Adobe Illustrator 15.1.0, SVG Export Plug-In  -->
<!DOCTYPE svg PUBLIC "-//W3C//DTD SVG 1.1//EN" "http://www.w3.org/Graphics/SVG/1.1/DTD/svg11.dtd" [
	<!ENTITY ns_flows "http://ns.adobe.com/Flows/1.0/">
]>
<svg version="1.1"
	 xmlns="http://www.w3.org/2000/svg" xmlns:xlink="http://www.w3.org/1999/xlink" xmlns:a="http://ns.adobe.com/AdobeSVGViewerExtensions/3.0/"
	 x="0px" y="0px" width="16px" height="16px" viewBox="-2.027 -2.839 16 16"
	 overflow="visible" enable-background="new -2.027 -2.839 16 16" xml:space="preserve">
<defs>
</defs>
<polygon display="none" fill="#FFFFFF" points="2.473,6.161 7.473,6.161 7.473,1.161 "/>
<polygon display="none" fill="#FFFFFF" points="3.973,8.464 7.508,4.929 3.973,1.393 "/>
<path display="none" fill="#FFB440" d="M1.08,4.721c0.276-0.007,0.5-0.081,0.674-0.223c0.173-0.142,0.289-0.336,0.346-0.583
	s0.088-0.669,0.091-1.268C2.195,2.05,2.206,1.656,2.224,1.466c0.032-0.301,0.092-0.542,0.18-0.725
	C2.492,0.559,2.6,0.412,2.729,0.303C2.858,0.194,3.022,0.11,3.223,0.054C3.359,0.018,3.581,0,3.889,0H4.19v0.843H4.023
	c-0.373,0-0.62,0.067-0.741,0.201C3.161,1.179,3.1,1.479,3.1,1.944c0,0.938-0.02,1.53-0.059,1.777C2.976,4.105,2.866,4.4,2.71,4.608
	C2.554,4.815,2.31,5,1.977,5.161c0.394,0.165,0.68,0.416,0.856,0.755C3.011,6.254,3.1,6.809,3.1,7.578
	c0,0.698,0.007,1.114,0.021,1.246C3.15,9.068,3.222,9.238,3.338,9.335c0.117,0.097,0.345,0.145,0.685,0.145H4.19v0.843H3.889
	c-0.351,0-0.605-0.028-0.763-0.086c-0.229-0.082-0.419-0.215-0.569-0.399S2.309,9.419,2.264,9.136
	C2.22,8.854,2.195,8.39,2.192,7.745S2.158,6.654,2.101,6.407S1.928,5.965,1.754,5.822C1.581,5.679,1.356,5.604,1.08,5.597V4.721z"/>
<path display="none" fill="#FFB440" d="M10.866,4.721v0.876c-0.275,0.007-0.5,0.082-0.674,0.226
	c-0.174,0.143-0.289,0.337-0.346,0.582C9.789,6.65,9.758,7.071,9.754,7.67C9.75,8.268,9.741,8.661,9.722,8.852
	C9.69,9.155,9.629,9.398,9.542,9.579C9.455,9.76,9.346,9.905,9.217,10.014c-0.129,0.109-0.293,0.192-0.494,0.25
	c-0.137,0.039-0.357,0.059-0.666,0.059H7.756V9.479h0.166c0.373,0,0.62-0.067,0.742-0.201c0.121-0.135,0.182-0.436,0.182-0.905
	c0-0.895,0.017-1.463,0.049-1.702c0.057-0.397,0.172-0.716,0.344-0.954c0.172-0.237,0.416-0.423,0.73-0.556
	C9.557,4.965,9.268,4.704,9.099,4.38S8.846,3.509,8.846,2.739c0-0.698-0.008-1.115-0.026-1.252C8.795,1.248,8.724,1.08,8.608,0.985
	C8.491,0.891,8.263,0.843,7.922,0.843H7.756V0h0.301C8.409,0,8.663,0.028,8.82,0.086c0.229,0.078,0.419,0.211,0.569,0.397
	c0.15,0.186,0.248,0.421,0.293,0.703C9.727,1.47,9.75,1.934,9.754,2.578s0.034,1.089,0.092,1.334
	c0.057,0.246,0.172,0.44,0.346,0.583C10.366,4.639,10.59,4.714,10.866,4.721z"/>
<path fill="#FFB440" d="M0.154,5.599V4.696l5.215-2.202v0.962L1.233,5.153l4.136,1.713v0.962L0.154,5.599z"/>
<path fill="#FFB440" d="M11.792,5.599L6.578,7.828V6.866l4.13-1.713l-4.13-1.697V2.494l5.215,2.202V5.599z"/>
<path display="none" fill="#FFB440" d="M0.001,6.864l0.94-0.129C0.966,7.337,1.079,7.748,1.279,7.97
	C1.48,8.192,1.757,8.304,2.112,8.304c0.261,0,0.487-0.061,0.677-0.18c0.19-0.121,0.32-0.283,0.392-0.49
	c0.072-0.205,0.107-0.533,0.107-0.984V1.224H4.33V6.59c0,0.659-0.08,1.169-0.239,1.53c-0.16,0.362-0.412,0.638-0.758,0.828
	C2.988,9.138,2.583,9.232,2.117,9.232c-0.691,0-1.22-0.198-1.587-0.597C0.163,8.239-0.013,7.647,0.001,6.864z"/>
<path display="none" fill="#FFB440" d="M5.678,6.568l0.982-0.086C6.708,6.876,6.816,7.2,6.986,7.452S7.42,7.909,7.778,8.063
	C8.136,8.22,8.539,8.298,8.987,8.298c0.397,0,0.748-0.059,1.053-0.178c0.304-0.117,0.53-0.279,0.68-0.486
	c0.148-0.205,0.223-0.43,0.223-0.674c0-0.246-0.072-0.463-0.215-0.646c-0.144-0.185-0.38-0.34-0.709-0.465
	c-0.212-0.082-0.679-0.21-1.402-0.384c-0.723-0.173-1.229-0.337-1.52-0.491C6.72,4.776,6.44,4.532,6.255,4.24
	C6.071,3.948,5.979,3.622,5.979,3.26c0-0.397,0.113-0.769,0.338-1.115C6.542,1.8,6.873,1.538,7.305,1.358
	C7.739,1.179,8.22,1.09,8.75,1.09c0.583,0,1.099,0.094,1.544,0.282c0.446,0.188,0.789,0.465,1.028,0.83
	c0.24,0.365,0.369,0.779,0.387,1.241L10.71,3.518c-0.054-0.498-0.235-0.874-0.545-1.128S9.398,2.008,8.793,2.008
	c-0.631,0-1.09,0.115-1.378,0.347C7.127,2.585,6.983,2.864,6.983,3.19c0,0.283,0.103,0.516,0.307,0.698
	c0.2,0.183,0.724,0.37,1.571,0.562c0.847,0.191,1.428,0.359,1.742,0.502c0.459,0.211,0.797,0.479,1.016,0.803
	c0.218,0.324,0.327,0.697,0.327,1.119c0,0.42-0.12,0.814-0.359,1.186c-0.24,0.369-0.585,0.658-1.034,0.863
	c-0.449,0.207-0.955,0.31-1.518,0.31c-0.712,0-1.31-0.104-1.791-0.312s-0.859-0.52-1.133-0.938C5.836,7.566,5.692,7.095,5.678,6.568
	z"/>
</svg>
