<?xml version="1.0" encoding="utf-8"?>
<!-- Generator: Adobe Illustrator 15.1.0, SVG Export Plug-In  -->
<!DOCTYPE svg PUBLIC "-//W3C//DTD SVG 1.1//EN" "http://www.w3.org/Graphics/SVG/1.1/DTD/svg11.dtd" [
	<!ENTITY ns_flows "http://ns.adobe.com/Flows/1.0/">
]>
<svg version="1.1"
	 xmlns="http://www.w3.org/2000/svg" xmlns:xlink="http://www.w3.org/1999/xlink" xmlns:a="http://ns.adobe.com/AdobeSVGViewerExtensions/3.0/"
	 x="0px" y="0px" width="16px" height="16px" viewBox="-2.027 -2.513 16 16"
	 overflow="visible" enable-background="new -2.027 -2.513 16 16" xml:space="preserve">
<defs>
</defs>
<polygon display="none" fill="#FFFFFF" points="2.473,6.487 7.473,6.487 7.473,1.487 "/>
<polygon display="none" fill="#FFFFFF" points="3.973,8.79 7.508,5.255 3.973,1.719 "/>
<path display="none" fill="#FF8000" d="M0.856,5.121c0.54-0.107,0.647-0.335,0.647-1.438V1.476C1.503,0.528,2.055,0,3.062,0h0.66
	v0.792H3.375c-0.731,0-0.983,0.228-0.983,0.875V3.49c0,1.476-0.084,1.739-0.624,1.991c0.54,0.276,0.624,0.54,0.624,2.003v1.823
	c0,0.647,0.252,0.875,0.983,0.875h0.348v0.792h-0.66c-1.007,0-1.559-0.527-1.559-1.475V7.281c0-1.092-0.108-1.32-0.647-1.428V5.121z
	"/>
<path display="none" fill="#FF8000" d="M11.09,5.854c-0.54,0.107-0.647,0.336-0.647,1.428V9.5c0,0.947-0.552,1.475-1.56,1.475H8.224
	v-0.792h0.348c0.731,0,0.983-0.228,0.983-0.875V7.484c0-1.463,0.084-1.727,0.624-2.003C9.639,5.229,9.555,4.966,9.555,3.49V1.667
	c0-0.647-0.252-0.875-0.983-0.875H8.224V0h0.659c1.008,0,1.56,0.528,1.56,1.476v2.207c0,1.104,0.107,1.331,0.647,1.438V5.854z"/>
<path fill="#FFB440" d="M0.001,7.19l0.94-0.129c0.025,0.602,0.138,1.013,0.338,1.234C1.48,8.519,1.757,8.63,2.112,8.63
	c0.261,0,0.487-0.061,0.677-0.18c0.19-0.121,0.32-0.283,0.392-0.49c0.072-0.205,0.107-0.533,0.107-0.984V1.55H4.33v5.366
	c0,0.659-0.08,1.169-0.239,1.53c-0.16,0.362-0.412,0.638-0.758,0.828C2.988,9.464,2.583,9.559,2.117,9.559
	c-0.691,0-1.22-0.198-1.587-0.597C0.163,8.565-0.013,7.974,0.001,7.19z"/>
<path fill="#FFB440" d="M5.678,6.895l0.982-0.086c0.047,0.394,0.155,0.718,0.325,0.97S7.42,8.235,7.778,8.39
	c0.358,0.156,0.761,0.234,1.209,0.234c0.397,0,0.748-0.059,1.053-0.178c0.304-0.117,0.53-0.279,0.68-0.486
	c0.148-0.205,0.223-0.43,0.223-0.674c0-0.246-0.072-0.463-0.215-0.646c-0.144-0.185-0.38-0.34-0.709-0.465
	c-0.212-0.082-0.679-0.21-1.402-0.384c-0.723-0.173-1.229-0.337-1.52-0.491C6.72,5.103,6.44,4.858,6.255,4.566
	c-0.184-0.292-0.276-0.618-0.276-0.98c0-0.397,0.113-0.769,0.338-1.115c0.225-0.345,0.555-0.607,0.988-0.787
	C7.739,1.505,8.22,1.416,8.75,1.416c0.583,0,1.099,0.094,1.544,0.282c0.446,0.188,0.789,0.465,1.028,0.83
	c0.24,0.365,0.369,0.779,0.387,1.241L10.71,3.844c-0.054-0.498-0.235-0.874-0.545-1.128S9.398,2.334,8.793,2.334
	c-0.631,0-1.09,0.115-1.378,0.347C7.127,2.912,6.983,3.19,6.983,3.516c0,0.283,0.103,0.516,0.307,0.698
	c0.2,0.183,0.724,0.37,1.571,0.562c0.847,0.191,1.428,0.359,1.742,0.502c0.459,0.211,0.797,0.479,1.016,0.803
	c0.218,0.324,0.327,0.697,0.327,1.119c0,0.42-0.12,0.814-0.359,1.186c-0.24,0.369-0.585,0.658-1.034,0.863
	c-0.449,0.207-0.955,0.31-1.518,0.31c-0.712,0-1.31-0.104-1.791-0.312S6.384,8.728,6.111,8.31C5.836,7.893,5.692,7.421,5.678,6.895z
	"/>
</svg>
