<?xml version="1.0" encoding="utf-8"?>
<!-- Generator: Adobe Illustrator 15.1.0, SVG Export Plug-In . SVG Version: 6.00 Build 0)  -->
<!DOCTYPE svg PUBLIC "-//W3C//DTD SVG 1.1//EN" "http://www.w3.org/Graphics/SVG/1.1/DTD/svg11.dtd">
<svg version="1.1" id="main" xmlns="http://www.w3.org/2000/svg" xmlns:xlink="http://www.w3.org/1999/xlink" x="0px" y="0px"
	 width="16px" height="16px" viewBox="0 0 16 16" enable-background="new 0 0 16 16" display="none" xml:space="preserve">
<g id="folder-open" display="inline">
	<polygon fill="#FFFFFF" points="4.5,9 9.5,9 9.5,4 	"/>
</g>
<g id="folder-close" display="inline">
	<polygon fill="#FFFFFF" points="6,11.303 9.535,7.768 6,4.232 	"/>
</g>
<g id="JSON" display="inline">
	<g>
		<path fill="#FFB440" d="M3.107,7.56c0.276-0.007,0.5-0.081,0.674-0.223C3.955,7.195,4.07,7.001,4.127,6.754
			s0.088-0.669,0.091-1.268C4.221,4.888,4.232,4.495,4.25,4.304c0.032-0.301,0.092-0.542,0.18-0.725
			C4.518,3.396,4.626,3.25,4.755,3.141c0.13-0.108,0.294-0.192,0.495-0.248c0.136-0.036,0.358-0.054,0.666-0.054h0.301v0.843H6.05
			c-0.373,0-0.62,0.067-0.741,0.201c-0.122,0.135-0.183,0.435-0.183,0.9c0,0.938-0.02,1.53-0.059,1.777
			c-0.064,0.384-0.175,0.679-0.33,0.887C4.581,7.654,4.337,7.839,4.004,8c0.394,0.165,0.68,0.416,0.856,0.755
			c0.178,0.338,0.266,0.894,0.266,1.662c0,0.698,0.007,1.114,0.021,1.246c0.029,0.244,0.101,0.414,0.217,0.511
			c0.117,0.098,0.345,0.145,0.685,0.145h0.167v0.845h-0.3c-0.351,0-0.605-0.028-0.763-0.086c-0.229-0.082-0.419-0.216-0.569-0.399
			s-0.248-0.418-0.293-0.699c-0.044-0.283-0.069-0.746-0.072-1.393c-0.003-0.646-0.034-1.093-0.092-1.34S3.955,8.805,3.781,8.661
			C3.607,8.518,3.383,8.442,3.107,8.436V7.56z"/>
		<path fill="#FFB440" d="M12.893,7.56v0.876c-0.273,0.007-0.5,0.082-0.674,0.226c-0.174,0.143-0.289,0.337-0.346,0.582
			c-0.059,0.246-0.088,0.667-0.092,1.266c-0.004,0.598-0.014,0.991-0.032,1.182c-0.032,0.306-0.093,0.549-0.181,0.729
			c-0.088,0.183-0.195,0.326-0.324,0.437c-0.129,0.107-0.293,0.19-0.494,0.25c-0.137,0.039-0.357,0.059-0.666,0.059H9.783V12.32
			h0.166c0.373,0,0.619-0.066,0.742-0.2c0.121-0.136,0.182-0.437,0.182-0.905c0-0.895,0.018-1.463,0.049-1.701
			c0.057-0.396,0.172-0.717,0.344-0.955c0.172-0.237,0.416-0.423,0.73-0.556c-0.412-0.196-0.701-0.457-0.87-0.781
			c-0.169-0.324-0.253-0.871-0.253-1.641c0-0.698-0.008-1.115-0.025-1.252c-0.023-0.239-0.097-0.407-0.213-0.502
			c-0.117-0.095-0.345-0.143-0.686-0.143H9.783V2.839h0.301c0.352,0,0.605,0.028,0.764,0.086c0.229,0.078,0.418,0.211,0.568,0.397
			s0.248,0.421,0.293,0.703c0.045,0.283,0.068,0.747,0.072,1.392s0.033,1.089,0.092,1.334c0.057,0.246,0.172,0.44,0.346,0.583
			C12.393,7.478,12.617,7.553,12.893,7.56z"/>
	</g>
</g>
<g id="JavaScript" display="inline">
	<g>
		<path fill="#FFB440" d="M2.028,9.703l0.94-0.129c0.025,0.602,0.138,1.013,0.338,1.234c0.201,0.223,0.478,0.334,0.833,0.334
			c0.261,0,0.487-0.062,0.677-0.182c0.19-0.121,0.32-0.281,0.392-0.488c0.072-0.205,0.107-0.533,0.107-0.984V4.063h1.042V9.43
			c0,0.658-0.08,1.168-0.239,1.529c-0.16,0.361-0.412,0.639-0.758,0.828c-0.345,0.189-0.751,0.283-1.216,0.283
			c-0.691,0-1.22-0.197-1.587-0.596C2.19,11.078,2.014,10.486,2.028,9.703z"/>
		<path fill="#FFB440" d="M7.705,9.407L8.688,9.32c0.047,0.395,0.154,0.719,0.324,0.971s0.437,0.457,0.793,0.611
			c0.357,0.156,0.76,0.232,1.209,0.232c0.396,0,0.747-0.059,1.053-0.178c0.305-0.117,0.529-0.277,0.681-0.484
			c0.147-0.205,0.224-0.432,0.224-0.676c0-0.246-0.072-0.463-0.216-0.646c-0.146-0.186-0.38-0.34-0.709-0.465
			c-0.212-0.082-0.679-0.209-1.401-0.384C9.92,8.13,9.413,7.966,9.123,7.812C8.747,7.615,8.467,7.371,8.282,7.079
			C8.098,6.787,8.006,6.46,8.006,6.099c0-0.397,0.113-0.769,0.338-1.115c0.225-0.345,0.555-0.607,0.988-0.787
			c0.434-0.179,0.915-0.269,1.445-0.269c0.582,0,1.099,0.094,1.543,0.282c0.447,0.188,0.789,0.465,1.029,0.83
			c0.238,0.365,0.367,0.779,0.387,1.241l-1,0.075c-0.053-0.498-0.234-0.874-0.545-1.128s-0.769-0.381-1.371-0.381
			c-0.631,0-1.09,0.115-1.379,0.347C9.154,5.424,9.01,5.703,9.01,6.029c0,0.283,0.104,0.516,0.307,0.698
			c0.201,0.183,0.726,0.37,1.572,0.562c0.846,0.191,1.428,0.359,1.741,0.502c0.459,0.211,0.797,0.479,1.017,0.803
			c0.219,0.324,0.326,0.697,0.326,1.119c0,0.42-0.119,0.814-0.357,1.186c-0.24,0.369-0.586,0.658-1.034,0.863
			c-0.449,0.207-0.955,0.312-1.519,0.312c-0.713,0-1.311-0.104-1.791-0.312s-0.858-0.52-1.132-0.938
			C7.863,10.404,7.719,9.934,7.705,9.407z"/>
	</g>
</g>
<g id="HTML" display="inline">
	<g>
		<path fill="#FFB440" d="M2.181,8.438V7.535l5.215-2.202v0.962L3.26,7.992l4.136,1.713v0.962L2.181,8.438z"/>
		<path fill="#FFB440" d="M13.818,8.438l-5.215,2.229V9.705l4.131-1.713L8.604,6.295V5.333l5.215,2.202V8.438L13.818,8.438z"/>
	</g>
</g>
<g id="folder" display="inline">
	<g>
		<path fill="#60B8D2" d="M7,4.819c0,0.553-0.448,1-1,1H3c-0.552,0-1-0.447-1-1v-1c0-0.552,0.448-1,1-1h3c0.552,0,1,0.448,1,1V4.819
			z"/>
		<path fill="#9AE5FF" d="M14,11.182c0,0.551-0.447,1-1,1H3c-0.552,0-1-0.449-1-1V5.18c0-0.552,0.448-1,1-1h10c0.553,0,1,0.448,1,1
			V11.182z"/>
	</g>
</g>
<g id="transparent" display="inline">
	<rect fill="#F0F0F0" width="4" height="4"/>
	<rect x="4" y="4" fill="#F0F0F0" width="4" height="4"/>
	<rect x="8" fill="#F0F0F0" width="4" height="4"/>
	<rect x="12" y="4" fill="#F0F0F0" width="4" height="4"/>
	<rect y="8" fill="#F0F0F0" width="4" height="4"/>
	<rect x="4" y="12" fill="#F0F0F0" width="4" height="4"/>
	<rect x="8" y="8" fill="#F0F0F0" width="4" height="4"/>
	<rect x="12" y="12" fill="#F0F0F0" width="4" height="4"/>
</g>
<g id="picker-up" display="inline">
	<polygon fill="#808080" points="11,4.013 8,1.014 5,4.014 5,15.032 11,15.032 	"/>
</g>
</svg>
